<svg width="18" height="18" viewBox="0 0 18 18" fill="none" xmlns="http://www.w3.org/2000/svg">
<path d="M9 11C10.1046 11 11 10.1046 11 9C11 7.89543 10.1046 7 9 7C7.89543 7 7 7.89543 7 9C7 10.1046 7.89543 11 9 11Z" fill="black"/>
<path d="M1.25 11C2.14 14.45 5.27 17 9 17C13.42 17 17 13.42 17 9C17 4.58 13.42 1 9 1C6.61 1 4.47 2.05 3 3.71L1 6" stroke="black" stroke-width="2" stroke-linecap="round" stroke-linejoin="round"/>
<path d="M2.63 4.38L0.5 2.25V6.5H4.75L2.63 4.38Z" fill="black" stroke="black" stroke-linecap="round" stroke-linejoin="round"/>
</svg>
