<svg width="22" height="16" viewBox="0 0 22 16" fill="none" xmlns="http://www.w3.org/2000/svg">
<path d="M5.5 16.0001C3.98 16.0001 2.68333 15.4767 1.61 14.4301C0.536667 13.3767 0 12.0934 0 10.5801C0 9.28008 0.39 8.12008 1.17 7.10008C1.95667 6.08008 2.98333 5.43008 4.25 5.15008C4.63667 3.80341 5.35 2.67008 6.39 1.75008C7.43 0.836745 8.63333 0.280078 10 0.0800781V8.15008L8.4 6.60008L7 8.00008L11 12.0001L15 8.00008L13.6 6.60008L12 8.15008V0.0800781C13.72 0.313411 15.15 1.08341 16.29 2.39008C17.43 3.69674 18 5.23341 18 7.00008C19.1533 7.13341 20.1067 7.63341 20.86 8.50008C21.62 9.35341 22 10.3534 22 11.5001C22 12.7534 21.5633 13.8167 20.69 14.6901C19.8167 15.5634 18.7533 16.0001 17.5 16.0001H5.5Z" fill="black"/>
</svg>
