<svg width="24" height="12" viewBox="0 0 24 12" fill="none" xmlns="http://www.w3.org/2000/svg">
<path d="M8 6H16M9 2H6C4.93913 2 3.92172 2.42143 3.17157 3.17157C2.42143 3.92172 2 4.93913 2 6C2 7.06087 2.42143 8.07828 3.17157 8.82843C3.92172 9.57857 4.93913 10 6 10H9M15 2H18C19.0609 2 20.0783 2.42143 20.8284 3.17157C21.5786 3.92172 22 4.93913 22 6C22 7.06087 21.5786 8.07828 20.8284 8.82843C20.0783 9.57857 19.0609 10 18 10H15" stroke="black" stroke-width="2.5" stroke-linecap="round" stroke-linejoin="round"/>
</svg>
