<svg width="56" height="65" viewBox="0 0 56 65" fill="none" xmlns="http://www.w3.org/2000/svg">
<g clip-path="url(#clip0_334_642)">
<path d="M7.22295 65.0002C6.8182 64.8985 6.40837 64.8069 6.007 64.6933C2.4726 63.6962 0.0254463 60.4948 0.0102045 56.7898C-0.00842435 52.1996 0.0051239 47.6095 0.0051239 43.0176C0.0051239 31.4667 0.00173683 19.9175 0.00681743 8.36664C0.0102045 4.35639 2.61994 1.06001 6.47103 0.202002C7.06376 0.0697405 7.68359 0.0120878 8.29157 0.0120878C15.9209 0.000218102 23.5486 -0.00317323 31.1763 0.00700077C35.8233 0.0137834 39.4034 3.57129 39.4559 8.22759C39.4796 10.3845 39.4746 12.5431 39.4509 14.7C39.4458 15.1951 39.5914 15.3409 40.0859 15.3664C47.7864 15.7716 54.6198 21.9913 55.785 29.6354C57.2363 39.16 51.2158 47.6739 41.7693 49.4425C41.2308 49.5425 40.6804 49.6375 40.1367 49.629C39.5542 49.6188 39.4441 49.8528 39.4525 50.3819C39.4813 52.3488 39.4051 54.3192 39.4763 56.2828C39.6541 61.1901 36.0248 64.4678 32.4871 64.9036C32.4329 64.9103 32.3837 64.9663 32.3312 64.9985H7.22295V65.0002ZM36.9258 15.2917C36.9258 12.9466 36.9343 10.7067 36.9241 8.46668C36.9072 4.938 34.5024 2.54372 30.9747 2.54202C23.4927 2.53863 16.0124 2.53863 8.53036 2.54202C4.97903 2.54202 2.5505 4.96343 2.54373 8.50907C2.53865 11.429 2.54373 14.349 2.54373 17.2689C2.54373 30.3442 2.54203 43.4195 2.54542 56.4948C2.54542 59.9827 4.97394 62.455 8.40673 62.4584C15.9938 62.4652 23.5808 62.4703 31.1678 62.4567C34.4278 62.4516 36.8665 60.0455 36.919 56.7864C36.9546 54.5651 36.919 52.3438 36.936 50.1224C36.9393 49.7307 36.8293 49.573 36.4228 49.5137C29.4048 48.5065 23.8077 43.4042 22.1294 36.5113C21.6603 34.5833 21.5875 32.6299 21.7484 30.5884C21.4639 30.5884 21.2166 30.5884 20.9677 30.5884C16.6136 30.5884 12.2612 30.59 7.90714 30.5884C6.8707 30.5884 6.39651 30.1153 6.37449 29.0826C6.36603 28.7231 6.37449 28.3636 6.37449 28.0042C6.37449 24.3008 6.37111 20.5992 6.37619 16.8958C6.37619 15.7682 6.82836 15.3172 7.9444 15.2951C8.15609 15.2917 8.36778 15.2951 8.57778 15.2951C17.7296 15.2951 26.8798 15.2951 36.0316 15.2951H36.9309L36.9258 15.2917ZM38.7904 47.1618C46.7855 47.2279 53.4157 40.6776 53.4936 32.6367C53.5715 24.5484 47.0717 17.9455 38.9326 17.8437C30.9002 17.7437 24.2802 24.2449 24.2057 32.3044C24.1295 40.5402 30.5632 47.0957 38.7904 47.1618ZM8.94528 17.8658V28.0109C9.08414 28.0262 9.18576 28.0482 9.28737 28.0482C13.4484 28.0499 17.6111 28.0398 21.7721 28.0635C22.2514 28.0669 22.314 27.7973 22.4139 27.47C23.5401 23.8125 25.6638 20.8654 28.7342 18.5949C29.0255 18.3796 29.3202 18.1659 29.73 17.8675H8.94528V17.8658Z" fill="#00C700"/>
<path d="M13.3907 47.1735C15.2485 47.1735 17.1063 47.1616 18.9642 47.1786C20.0294 47.1887 20.6577 48.0739 20.2529 48.9556C20.0158 49.4728 19.5772 49.6932 19.0302 49.7034C18.3545 49.7153 17.6788 49.7102 17.003 49.7102C14.1325 49.7102 11.262 49.7102 8.39144 49.7102C8.28644 49.7102 8.17974 49.7102 8.07475 49.7102C6.98242 49.7017 6.38121 49.2507 6.37952 48.435C6.37783 47.6194 6.97226 47.1735 8.07305 47.1718C9.84618 47.1701 11.6193 47.1718 13.3924 47.1718L13.3907 47.1735Z" fill="#00C700"/>
<path d="M22.3174 8.9057C20.8829 8.9057 19.4485 8.91079 18.0158 8.90401C17.1199 8.89892 16.5898 8.42752 16.5848 7.65769C16.5797 6.88955 17.1165 6.37577 17.9921 6.37238C20.8609 6.3622 23.7281 6.3622 26.5969 6.37238C27.4454 6.37577 28.0246 6.92855 28.0127 7.66617C28.0008 8.41396 27.4403 8.90062 26.558 8.90401C25.1456 8.91079 23.7315 8.9057 22.319 8.9057H22.3174Z" fill="#00C700"/>
<path d="M12.1054 43.3226C10.671 43.3226 9.23823 43.331 7.8038 43.3192C6.93672 43.3124 6.37108 42.7901 6.38124 42.0474C6.38971 41.3047 6.95704 40.7926 7.8309 40.7892C10.6777 40.7791 13.5246 40.7808 16.3714 40.7892C17.169 40.7909 17.6381 41.1436 17.7838 41.7931C17.9091 42.3543 17.6652 42.9343 17.1385 43.1666C16.8794 43.2802 16.5695 43.3158 16.2816 43.3192C14.8895 43.3344 13.4975 43.326 12.1071 43.326L12.1054 43.3226Z" fill="#00C700"/>
<path d="M19.7635 58.6359C18.3291 58.6359 16.8964 58.6461 15.462 58.6325C14.5322 58.6241 13.9767 58.0594 14.0428 57.2353C14.0953 56.5944 14.5779 56.1111 15.2638 56.1077C18.2377 56.0924 21.2098 56.0941 24.1836 56.106C24.9152 56.1094 25.447 56.6435 25.4673 57.3218C25.4894 58.0119 24.9508 58.5919 24.1921 58.6258C23.4131 58.6597 22.6324 58.6359 21.8517 58.6376C21.1556 58.6376 20.4596 58.6376 19.7635 58.6376V58.6359Z" fill="#00C700"/>
<path d="M12.0562 36.9539C10.6642 36.9539 9.27207 36.959 7.87999 36.9539C6.96548 36.9488 6.38121 36.4486 6.37952 35.6906C6.37952 34.9326 6.97056 34.4205 7.8766 34.4189C10.7031 34.4138 13.5279 34.4138 16.3544 34.4189C17.2554 34.4205 17.8413 34.953 17.8227 35.7177C17.8041 36.4587 17.2367 36.9471 16.3578 36.9522C14.9234 36.9607 13.489 36.9539 12.0562 36.9539Z" fill="#00C700"/>
<path d="M11.4907 7.56956C11.5279 6.89129 12.1342 6.3385 12.7981 6.37581C13.506 6.4165 14.0411 7.03542 13.9852 7.7493C13.931 8.43774 13.3451 8.94135 12.649 8.89726C11.9665 8.85318 11.4517 8.26478 11.489 7.57125L11.4907 7.56956Z" fill="#00C700"/>
<path d="M35.2781 26.2356C35.8505 26.2356 36.4246 26.2339 36.997 26.2356C37.5863 26.239 37.9538 26.6019 37.9555 27.1903C37.9606 28.345 37.9606 29.4998 37.9555 30.6528C37.9538 31.2277 37.5813 31.6041 37.0105 31.6075C35.8505 31.6143 34.6904 31.6126 33.5303 31.6075C32.9545 31.6041 32.5904 31.2328 32.5887 30.6562C32.5853 29.4947 32.5853 28.3332 32.5887 27.1716C32.5904 26.5934 32.9545 26.2356 33.5371 26.2339C34.1163 26.2305 34.6972 26.2339 35.2764 26.2339L35.2781 26.2356ZM34.3856 28.0313V29.8033H36.1502V28.0313H34.3856Z" fill="#00C700"/>
<path d="M45.1089 28.9129C45.1089 29.486 45.1106 30.0608 45.1089 30.634C45.1055 31.2478 44.7448 31.609 44.1283 31.6107C42.9971 31.6141 41.8641 31.6124 40.7328 31.6107C40.1079 31.6107 39.7421 31.2427 39.7404 30.617C39.7387 29.4843 39.7387 28.3499 39.7404 27.2172C39.7404 26.6 40.1028 26.2371 40.7159 26.2371C41.8624 26.2354 43.0072 26.2354 44.1537 26.2371C44.7465 26.2371 45.1038 26.5966 45.1072 27.1918C45.1106 27.7649 45.1072 28.3397 45.1072 28.9129H45.1089ZM43.3138 29.8048V28.0328H41.544V29.8048H43.3138Z" fill="#00C700"/>
<path d="M32.5887 36.0738C32.5887 35.5007 32.5853 34.9258 32.5887 34.3527C32.5921 33.766 32.9579 33.3997 33.5472 33.3981C34.6937 33.3947 35.8386 33.3947 36.9851 33.3981C37.5829 33.3997 37.9538 33.7711 37.9555 34.3697C37.9589 35.5176 37.9589 36.6639 37.9555 37.8119C37.9538 38.4037 37.588 38.7699 37.0003 38.7716C35.847 38.775 34.6937 38.775 33.5421 38.7716C32.9494 38.7716 32.5921 38.4104 32.5887 37.817C32.5853 37.237 32.5887 36.6554 32.5887 36.0755V36.0738ZM34.3855 35.2022V36.9742H36.1535V35.2022H34.3855Z" fill="#00C700"/>
<path d="M48.6772 37.922C48.6772 38.5867 48.7229 39.2548 48.667 39.9144C48.5485 41.3201 47.4308 42.3392 46.0184 42.3596C44.838 42.3765 43.6559 42.3664 42.4738 42.3613C41.92 42.3579 41.5254 41.9662 41.5322 41.4473C41.5407 40.9403 41.9386 40.569 42.484 40.5673C43.6237 40.5656 44.7634 40.5673 45.9015 40.5673C46.5417 40.5673 46.899 40.2078 46.9007 39.5651C46.9007 38.4104 46.899 37.2556 46.9007 36.1009C46.9007 35.66 47.175 35.3209 47.5933 35.2174C47.9828 35.1208 48.4045 35.3039 48.5773 35.6753C48.6484 35.8279 48.6823 36.0093 48.6874 36.1789C48.7009 36.7588 48.6924 37.3404 48.6924 37.922C48.6857 37.922 48.6806 37.922 48.6738 37.922H48.6772Z" fill="#00C700"/>
<path d="M29.0204 27.0663C29.0204 26.4084 28.9747 25.7471 29.0306 25.0942C29.1508 23.6936 30.2584 22.6728 31.6572 22.6491C32.8529 22.6287 34.0485 22.6389 35.2425 22.6474C35.781 22.6508 36.1722 23.0493 36.1637 23.558C36.157 24.0667 35.759 24.438 35.2137 24.4397C34.0739 24.4414 32.9342 24.4397 31.7961 24.4397C31.156 24.4397 30.7969 24.7992 30.7969 25.4402C30.7969 26.5949 30.7986 27.7497 30.7969 28.9044C30.7969 29.347 30.5243 29.6844 30.1043 29.7895C29.7232 29.8845 29.3049 29.7115 29.1288 29.3521C29.0526 29.1944 29.0136 29.0044 29.0103 28.8298C28.9967 28.2414 29.0052 27.6547 29.0052 27.0663C29.0103 27.0663 29.017 27.0663 29.0221 27.0663H29.0204Z" fill="#00C700"/>
<path d="M44.2926 22.6641C44.9497 22.6641 45.6102 22.6183 46.2622 22.6743C47.6458 22.7913 48.662 23.8986 48.6891 25.2958C48.7111 26.4929 48.6992 27.6901 48.6924 28.8855C48.6891 29.4281 48.2978 29.8198 47.7898 29.8164C47.2817 29.8131 46.9041 29.4146 46.9024 28.872C46.9007 27.7308 46.9024 26.5896 46.9024 25.4501C46.9024 24.7956 46.5467 24.4429 45.8896 24.4429C44.7364 24.4429 43.5831 24.4463 42.4298 24.4412C41.9725 24.4395 41.6084 24.1156 41.5424 23.6747C41.478 23.2576 41.7337 22.8354 42.1419 22.7048C42.2655 22.6658 42.4027 22.6523 42.5331 22.6506C43.1207 22.6455 43.7067 22.6489 44.2943 22.6489C44.2943 22.6556 44.2943 22.6624 44.2943 22.6675L44.2926 22.6641Z" fill="#00C700"/>
<path d="M33.41 42.3442C32.7529 42.3442 32.0925 42.39 31.4405 42.334C30.0484 42.217 29.0272 41.0979 29.0069 39.6973C28.9899 38.5069 28.9984 37.3183 29.0052 36.1279C29.0086 35.5853 29.3947 35.1919 29.9027 35.1919C30.4193 35.1919 30.7952 35.5938 30.7952 36.1516C30.7969 37.2928 30.7952 38.434 30.7952 39.5735C30.7952 40.2026 31.1576 40.5655 31.7809 40.5672C32.9409 40.5672 34.101 40.5655 35.2611 40.5689C35.6997 40.5689 36.0384 40.8486 36.14 41.2692C36.2315 41.649 36.0536 42.0695 35.6946 42.2408C35.5371 42.3154 35.3474 42.3527 35.1713 42.3561C34.5837 42.3697 33.9977 42.3612 33.41 42.3612C33.41 42.3544 33.41 42.3476 33.41 42.3425V42.3442Z" fill="#00C700"/>
<path d="M43.3257 36.9688C43.3257 36.3245 43.3257 35.6954 43.3257 35.0663C43.3257 34.8001 43.3206 34.5339 43.3291 34.2693C43.346 33.7742 43.7423 33.3944 44.225 33.3995C44.7025 33.4046 45.1005 33.7776 45.1039 34.2626C45.1141 35.48 45.1141 36.6975 45.1039 37.915C45.1005 38.3966 44.7279 38.7544 44.2453 38.7696C43.9455 38.7798 43.6441 38.7764 43.3443 38.7713C42.8329 38.7629 42.4603 38.4136 42.4281 37.9218C42.3993 37.4657 42.733 37.074 43.219 36.9943C43.2461 36.9892 43.2715 36.9824 43.3257 36.9705V36.9688Z" fill="#00C700"/>
<path d="M41.5424 35.2037C41.4543 35.77 41.1088 36.0922 40.6143 36.082C40.1384 36.0718 39.7693 35.7107 39.7455 35.2104C39.7303 34.9035 39.732 34.5949 39.7455 34.288C39.7659 33.7657 40.1368 33.4096 40.6651 33.3961C40.9378 33.3893 41.2088 33.391 41.4814 33.3961C41.9962 33.4029 42.3807 33.7335 42.4213 34.1964C42.4654 34.7136 42.1554 35.0951 41.6169 35.1884C41.5966 35.1918 41.5779 35.1969 41.5458 35.2037H41.5424Z" fill="#00C700"/>
<path d="M40.6499 36.9893C41.1411 36.991 41.5407 37.3979 41.5323 37.8897C41.5255 38.3848 41.1241 38.7731 40.6279 38.7697C40.1334 38.7646 39.7354 38.3611 39.7439 37.8693C39.7524 37.3742 40.1504 36.9876 40.6499 36.9893Z" fill="#00C700"/>
</g>
<defs>
<clipPath id="clip0_334_642">
<rect width="56" height="65" fill="white"/>
</clipPath>
</defs>
</svg>
