<svg width="61" height="57" viewBox="0 0 61 57" fill="none" xmlns="http://www.w3.org/2000/svg">
<path d="M12.2601 8.03332C12.2735 9.12868 11.3834 10.0507 10.2898 10.0743C9.19779 10.0962 8.26396 9.20776 8.23536 8.11745C8.20507 6.99181 9.11198 6.05294 10.2359 6.04789C11.3313 6.04116 12.2466 6.93965 12.2601 8.03332Z" fill="#00C700"/>
<path d="M16.2814 10.0727C15.1878 10.0676 14.2809 9.15736 14.2792 8.06369C14.2758 6.93805 15.2063 6.02441 16.3319 6.04628C17.4239 6.06647 18.3174 6.99021 18.3039 8.08388C18.2904 9.17755 17.3751 10.0777 16.2814 10.0727Z" fill="#00C700"/>
<path d="M56.5757 16.1485H4.20057V16.8468C4.20057 26.3533 4.03231 27.9534 4.03231 37.46C4.03231 39.4235 5.05868 40.4533 7.00878 40.4566C7.38736 40.4566 7.76425 40.4432 8.14115 40.4617C9.1793 40.5138 10.0122 41.3333 10.0711 42.3495C10.1299 43.3456 9.44346 44.3282 8.44401 44.4342C6.16917 44.6715 3.99697 44.4124 2.21008 42.7668C0.741198 41.4107 0.00927903 39.7298 0.00423132 37.7376C-0.00418154 34.5895 0.00254875 31.4414 0.00254875 28.2933C0.00254875 18.5125 0.167441 16.6415 0.172488 6.86072C0.174171 3.58307 2.16465 0.968358 5.25217 0.211201C5.83434 0.0681821 6.45353 0.00929207 7.05589 0.0076095C22.6079 -0.000803356 38.1582 -0.000803357 53.7102 0.000879215C57.7417 0.000879215 60.6222 2.87303 60.6239 6.89269C60.629 19.7576 60.4607 24.7145 60.4557 37.5794C60.4557 41.6008 57.5734 44.4746 53.5521 44.483C51.2217 44.4881 48.893 44.4864 46.5627 44.483C45.2419 44.4797 44.3232 43.6316 44.3383 42.4421C44.3535 41.2744 45.2553 40.4583 46.5509 40.4566C48.9435 40.4516 51.3361 40.465 53.7288 40.4516C55.3087 40.4432 56.4225 39.331 56.4242 37.7443C56.431 28.0477 56.5959 26.2608 56.5942 16.5641C56.5942 16.4413 56.5841 16.3185 56.5757 16.1468V16.1485ZM56.5942 12.0649C56.5942 10.2343 56.6059 8.47263 56.5908 6.71098C56.5773 5.13777 55.4601 4.03232 53.8684 4.03232C38.2138 4.02727 22.5574 4.02727 6.90278 4.03232C5.31779 4.03232 4.21571 5.14787 4.20393 6.73285C4.19215 8.36999 4.20057 10.0071 4.20393 11.6443C4.20393 11.7822 4.23422 11.9219 4.25104 12.0649H56.5942Z" fill="#00C700"/>
<path d="M22.3134 6.0465C23.4087 6.03472 24.3308 6.92649 24.3493 8.02016C24.3695 9.14075 23.4474 10.0763 22.3268 10.0729C21.2332 10.0678 20.3263 9.15926 20.3229 8.06559C20.3195 6.96519 21.213 6.05828 22.3117 6.0465H22.3134Z" fill="#00C700"/>
<path d="M22.157 32.9222C23.0134 32.9222 23.8699 32.9188 24.7263 32.9222C25.6063 32.9272 26.1565 33.469 26.1599 34.3473C26.1666 36.0703 26.1666 37.7932 26.1599 39.5162C26.1565 40.3743 25.6012 40.9363 24.7482 40.9413C23.0151 40.9497 21.2821 40.9497 19.5474 40.9413C18.6876 40.9379 18.1424 40.3827 18.139 39.5229C18.134 37.7898 18.134 36.0568 18.139 34.3221C18.1424 33.4589 18.6859 32.9255 19.5574 32.9222C20.424 32.9171 21.2905 32.9222 22.157 32.9222ZM20.8227 35.6008V38.2458H23.461V35.6008H20.8227Z" fill="#00C700"/>
<path d="M36.8491 36.9181C36.8491 37.7745 36.8525 38.631 36.8491 39.4874C36.8458 40.4044 36.3056 40.9428 35.3836 40.9462C33.6926 40.9496 32 40.9496 30.309 40.9462C29.3751 40.9445 28.8283 40.396 28.8266 39.4638C28.8233 37.7729 28.8233 36.0802 28.8266 34.3892C28.8283 33.4672 29.3667 32.9271 30.2854 32.9254C31.9983 32.922 33.7111 32.922 35.424 32.9254C36.309 32.9271 36.8441 33.4621 36.8491 34.3505C36.8542 35.2069 36.8491 36.0634 36.8491 36.9198V36.9181ZM34.1654 38.2507V35.6074H31.5204V38.2507H34.1654Z" fill="#00C700"/>
<path d="M18.1372 47.6061C18.1372 46.7497 18.1339 45.8933 18.1372 45.0368C18.1423 44.1602 18.6891 43.6134 19.5708 43.6117C21.2836 43.6066 22.9965 43.6066 24.7077 43.6117C25.5994 43.6151 26.1547 44.1686 26.1564 45.0621C26.1614 46.7749 26.1614 48.4878 26.1564 50.199C26.153 51.0806 25.6062 51.6275 24.7295 51.6308C23.0066 51.6359 21.2836 51.6359 19.5607 51.6308C18.674 51.6291 18.1406 51.0924 18.1355 50.204C18.1305 49.3375 18.1355 48.471 18.1355 47.6044L18.1372 47.6061ZM20.8209 46.3055V48.9505H23.4642V46.3055H20.8209Z" fill="#00C700"/>
<path d="M42.1812 50.3634C42.1812 51.3562 42.2502 52.3539 42.1678 53.3382C41.9911 55.4381 40.3203 56.9574 38.2087 56.9861C36.4436 57.0096 34.6786 56.9978 32.9119 56.9894C32.0841 56.9861 31.4935 56.3988 31.5053 55.6265C31.5171 54.8694 32.1127 54.3158 32.9271 54.3141C34.6298 54.3108 36.3326 54.3141 38.0354 54.3141C38.9911 54.3141 39.5261 53.7757 39.5278 52.8183C39.5278 51.0954 39.5244 49.3707 39.5295 47.6478C39.5312 46.9882 39.9383 46.4834 40.5659 46.3286C41.1481 46.1856 41.7774 46.4582 42.0365 47.0118C42.1425 47.2389 42.1947 47.5115 42.1997 47.7639C42.2199 48.6304 42.2065 49.4986 42.2065 50.3651C42.198 50.3651 42.1879 50.3651 42.1795 50.3651L42.1812 50.3634Z" fill="#00C700"/>
<path d="M12.8034 34.1621C12.8034 33.1812 12.7344 32.1935 12.8185 31.2193C12.9986 29.1278 14.6525 27.6051 16.744 27.5715C18.5292 27.5412 20.3161 27.5563 22.103 27.5681C22.9089 27.5731 23.4911 28.1671 23.481 28.9276C23.4692 29.6865 22.8753 30.2417 22.0609 30.2434C20.3581 30.2468 18.6554 30.2434 16.9526 30.2434C15.9952 30.2434 15.4585 30.7784 15.4585 31.7358C15.4585 33.4588 15.4618 35.1834 15.4568 36.9064C15.4551 37.5676 15.0496 38.0707 14.422 38.2272C13.8533 38.3685 13.2257 38.1094 12.9649 37.5744C12.8505 37.3405 12.7933 37.0561 12.7866 36.7936C12.7647 35.917 12.7781 35.0387 12.7781 34.1621C12.7866 34.1621 12.795 34.1621 12.8034 34.1621Z" fill="#00C700"/>
<path d="M35.6293 27.5899C36.6102 27.5899 37.5979 27.5209 38.5721 27.6034C40.64 27.7783 42.1593 29.4306 42.198 31.5153C42.2317 33.3005 42.2132 35.0874 42.2031 36.8743C42.198 37.6853 41.6142 38.2675 40.8537 38.2624C40.0948 38.2574 39.5295 37.6618 39.5278 36.8524C39.5244 35.1497 39.5278 33.4469 39.5278 31.7442C39.5278 30.7683 38.9961 30.2399 38.0135 30.2399C36.2905 30.2399 34.5659 30.245 32.8429 30.2366C32.1598 30.2332 31.6163 29.7503 31.5154 29.0907C31.4212 28.4699 31.8014 27.8372 32.4105 27.6437C32.5956 27.5848 32.7992 27.5647 32.996 27.563C33.8727 27.5546 34.751 27.5596 35.6293 27.5596C35.6293 27.5697 35.6293 27.5781 35.6293 27.5882V27.5899Z" fill="#00C700"/>
<path d="M19.3656 56.9645C18.3846 56.9645 17.397 57.0319 16.4228 56.9511C14.3414 56.7761 12.8153 55.1053 12.7851 53.0156C12.7581 51.2404 12.7733 49.4636 12.7817 47.6885C12.7851 46.8775 13.3639 46.2903 14.1227 46.292C14.8933 46.292 15.457 46.8927 15.457 47.7239C15.4603 49.4266 15.457 51.1294 15.457 52.8322C15.457 53.7693 15.9971 54.3145 16.9292 54.3145C18.664 54.3145 20.397 54.3111 22.1317 54.3179C22.7863 54.3195 23.2944 54.7351 23.4441 55.3627C23.5804 55.9315 23.3163 56.5574 22.7778 56.8131C22.5423 56.9258 22.2596 56.9797 21.9954 56.9864C21.1188 57.0066 20.2405 56.9948 19.3639 56.9948C19.3639 56.9847 19.3639 56.9763 19.3639 56.9662L19.3656 56.9645Z" fill="#00C700"/>
<path d="M34.184 48.9418C34.184 47.9794 34.184 47.0405 34.184 46.1016C34.184 45.7045 34.1756 45.3075 34.189 44.9104C34.2143 44.1717 34.8065 43.603 35.5267 43.6114C36.2401 43.6198 36.834 44.1751 36.8408 44.9003C36.8559 46.7174 36.8542 48.5363 36.8408 50.3535C36.8357 51.0719 36.2788 51.607 35.557 51.6289C35.1077 51.6423 34.6585 51.639 34.2092 51.6322C33.4453 51.6188 32.8884 51.0972 32.8413 50.3636C32.7975 49.6821 33.2973 49.0966 34.0241 48.9788C34.0645 48.9721 34.1032 48.9603 34.184 48.9435V48.9418Z" fill="#00C700"/>
<path d="M31.5171 46.3085C31.3858 47.1548 30.871 47.6344 30.1306 47.6192C29.4189 47.6041 28.867 47.064 28.8317 46.3186C28.8098 45.8609 28.8115 45.4016 28.8317 44.9423C28.862 44.1632 29.4156 43.6315 30.2064 43.6114C30.6119 43.6013 31.019 43.6046 31.4262 43.6114C32.1952 43.6214 32.7706 44.1144 32.8295 44.806C32.8951 45.5766 32.4324 46.147 31.6265 46.2866C31.5962 46.2917 31.5676 46.2984 31.5204 46.3102L31.5171 46.3085Z" fill="#00C700"/>
<path d="M30.1845 48.9724C30.9198 48.9758 31.5154 49.5815 31.5036 50.3168C31.4918 51.0554 30.8945 51.6359 30.1525 51.6292C29.4122 51.6225 28.8182 51.0184 28.83 50.2848C28.8418 49.5462 29.4374 48.9674 30.1845 48.9707V48.9724Z" fill="#00C700"/>
</svg>
