<?xml version="1.0" encoding="UTF-8"?>
<svg xmlns="http://www.w3.org/2000/svg" version="1.1" viewBox="0 0 130.5 185.1">
  <defs>
    <style>
      .cls-1 {
        fill: #00da00;
      }
    </style>
  </defs>
  <!-- Generator: Adobe Illustrator 28.6.0, SVG Export Plug-In . SVG Version: 1.2.0 Build 709)  -->
  <g>
    <g id="Capa_1">
      <g>
        <path class="cls-1" d="M3.8,105.8c0-21.1,0-42.2,0-63.3,0-6,3.7-10.8,9.4-12.1,1.1-.3,2.2-.3,3.4-.3,11,0,22,0,33,0,.4,0,.8,0,1.2,0,1.7.3,2.9,1.6,2.9,3.3,0,1.7-1.3,3-3.1,3.2-.4,0-.8,0-1.2,0-10.9,0-21.7,0-32.6,0-4.3,0-6.5,2.1-6.5,6.4,0,42,0,83.9,0,125.9,0,4.2,2.2,6.3,6.4,6.3,27.1,0,54.1,0,81.2,0,4.2,0,6.4-2.2,6.4-6.4,0-29.2,0-58.4,0-87.6,0-.6,0-1.2,0-1.8.2-1.7,1.6-2.8,3.3-2.8,1.6,0,2.9,1.3,3.1,2.9,0,.4,0,.7,0,1.1,0,29.4,0,58.9,0,88.3,0,6.2-3.5,11-9.3,12.4-1.1.3-2.3.4-3.5.4-27.1,0-54.3,0-81.4,0-7.5,0-12.7-5.2-12.7-12.7,0-21.1,0-42.1,0-63.2Z"/>
        <path class="cls-1" d="M86.4,107.7c-1.2-.9-2.6-1.5-4-2-4.2-1.4-8.7-1.6-13.1-1.6-.8,0-1.5-.2-2-.9-3-3.9-6-7.8-8.9-11.7-.3-.4-.4-1.1-.2-1.6.8-3.8,1.6-7.5,2.4-11.2-.4-2.2-.5-4.2-1.2-6.2-1-2.9-3.4-4.4-6.3-4.3-3.4,0-5.8,1.8-6.8,4.7-.7,2-.5,4-.1,6,.9,4.2,2.8,8,4.9,11.7.4.7.5,1.2.2,1.9-1.9,4.4-3.8,8.8-5.7,13.3-.4,1-1.1,1.5-2.1,1.7-3.9,1-7.7,2.1-11.1,4.2-1.8,1.1-3.5,2.4-5,4-2,2.2-2,5.2-.5,7.7,1.7,2.8,4.1,4,7.1,3.6,2.6-.4,4.6-2,6.4-3.7,3-2.9,5.3-6.2,7.4-9.8.6-1,1.2-1.5,2.3-1.6,4.9-.6,9.7-1.2,14.6-1.8.5,0,1.2.2,1.7.6,2.1,1.8,4.2,3.7,6.3,5.5,2.4,1.9,5,3.4,8.1,3.9,3.2.5,6.1-1.1,7.4-4.2,1.4-3.1.7-6-1.9-8ZM34.6,120.5c-.5.3-1,.6-1.5.6-.4,0-.9-.5-1.1-.9-.2-.3,0-1.1.2-1.3,1.1-.9,2.2-1.8,3.4-2.5,1.4-.8,3-1.4,4.5-2,0,0,.1.2.2.2-1.6,2.2-3.3,4.4-5.6,5.9ZM53.2,73.8c1.1,0,1.1.8,1.3,1.4.5,2.6,0,5.1-.5,8-1.2-2.7-2.2-5.1-2.2-7.7,0-1,.4-1.6,1.4-1.7ZM52.2,105.4c1.1-2.6,2.2-5.1,3.4-7.8,1.7,2.3,3.4,4.4,5.1,6.7-2.9.4-5.6.7-8.5,1.1ZM83.1,113.4c-.4,1-1.1.9-1.9.7-2.5-.7-4.5-2.2-6.4-3.9,2.6.1,5.1.4,7.4,1.6.7.3,1.3.7.9,1.7Z"/>
        <path class="cls-1" d="M69.2,147.2c-.5-5.6-4.5-9.5-10.1-9.7-2.1,0-4.1,0-6.2,0-2,0-2.8.9-2.8,3,0,2.8,0,5.5,0,8.3s0,5.7,0,8.5c0,1.8.9,2.8,2.7,2.8,2.3,0,4.6,0,6.9,0,2,0,3.8-.7,5.4-2,3.6-2.8,4.5-6.6,4.2-10.8ZM62.7,152.9c-1.7,2.9-4.6,2.5-7.4,2.4v-13c2.7,0,5.7-.6,7.4,2.2,1.7,2.7,1.6,5.7,0,8.4Z"/>
        <path class="cls-1" d="M40.5,137.5c-2.1-.1-4.1,0-6.2,0s-3.4.8-3.4,3.4c0,5.3,0,10.5,0,15.8,0,.4,0,.9,0,1.3.3,1.7,1.5,2.5,3.2,2.2,1.2-.3,1.8-1.1,1.9-2.4,0-1.6,0-3.2,0-5.1,1.7,0,3.2,0,4.6,0,4.3-.3,6.9-3.2,6.9-7.5,0-4.3-2.8-7.4-7-7.6ZM40,148c-1.2.3-2.5.2-3.9.3v-6.4c1.4.1,2.8.1,4.2.4,1.2.3,1.9,1.5,1.9,2.8,0,1.3-.9,2.6-2.2,2.9Z"/>
        <path class="cls-1" d="M77.4,142.2v4.1c1.6,0,3.1,0,4.7,0,1.1,0,2,.4,2.3,1.6.5,1.6-.4,3-2.1,3.1-.8,0-1.6,0-2.4,0-.8,0-1.6,0-2.6,0,0,2.2,0,4.4,0,6.5,0,1.6-.8,2.5-2.1,2.7-1.7.2-3-.7-3-2.5,0-5.9,0-11.8,0-17.8,0-1.4.9-2.4,2.4-2.4,2.8,0,5.5,0,8.3,0,1.5,0,2.3.9,2.3,2.4,0,1.4-.9,2.2-2.4,2.3-1.7,0-3.5,0-5.4,0Z"/>
        <path class="cls-1" d="M124.9,38.6c-.2.3-.2.9,0,1.2,1.1,1.8,2.3,3.5,3.5,5.2v1.5c-1.2,1-2.4,2.2-3.7,3.1-2.7,1.9-2.7,1.8-2.1,5,.2.8.3,1.6.5,2.4.4,2.1-.3,3.2-2.3,3.6-1.6.3-3.2.7-4.8.9-.7.1-1,.4-1.1,1.1-.2,1.5-.6,3-.9,4.5-.4,2.2-1.5,3-3.7,2.5-1.5-.3-3-.5-4.5-.9-.9-.2-1.2,0-1.6.7-.8,1.3-1.7,2.6-2.6,3.9-1.2,1.8-2.4,2-4.2.9-1.3-.8-2.6-1.7-3.8-2.6-.7-.5-1.2-.6-1.9,0-1.3,1-2.7,1.8-4,2.7-1.6,1-2.9.8-4-.8-1-1.4-1.9-2.8-2.8-4.3-.3-.5-.7-.7-1.3-.5-1.6.4-3.3.7-4.9,1-1.9.4-3.1-.4-3.5-2.3-.3-1.6-.7-3.3-1-4.9-.1-.6-.4-1-1.1-1.1-1.6-.3-3.2-.6-4.8-.9-2-.4-2.8-1.5-2.4-3.5.3-1.6.6-3.3,1-4.9.2-.7,0-1-.6-1.4-1.4-.9-2.8-1.8-4.2-2.8-1.6-1.1-1.9-2.4-.8-4.1.9-1.3,1.7-2.7,2.7-3.9.5-.7.5-1.2,0-1.9-.9-1.2-1.7-2.5-2.6-3.8-1.1-1.7-.9-3,.8-4.1,1.4-1,2.9-1.9,4.2-2.9.3-.2.5-.8.5-1.1-.3-1.6-.6-3.3-.9-4.9-.4-2,.4-3.2,2.4-3.6,1.5-.3,3.1-.7,4.6-.9.8-.1,1.1-.5,1.2-1.2.3-1.6.6-3.2.9-4.8.4-1.8,1.5-2.6,3.4-2.3,1.7.3,3.3.6,5,1,.6.2,1,0,1.3-.5.8-1.3,1.6-2.6,2.6-3.8.5-.7,1.2-1.2,1.9-1.8h1.5c1.7,1.2,3.4,2.4,5.2,3.5.3.2.9.2,1.2,0,1.8-1.1,3.5-2.3,5.2-3.5h1.5c.6.6,1.4,1.2,1.9,1.9.9,1.2,1.7,2.4,2.4,3.6.4.6.7.8,1.5.6,1.6-.4,3.2-.6,4.8-1,2-.4,3.1.4,3.5,2.3.3,1.6.6,3.3,1,4.9,0,.1,0,.2.2.4-9.6,10.2-21.8,23.3-23.6,25.3-2.1-2.1-4.1-4.1-6.1-6.1-2.2-2.2-5.4-2.3-7.4-.2-2,2-1.9,5.2.2,7.3,3.2,3.3,6.5,6.5,9.7,9.8,2.4,2.4,5.6,2.3,7.8-.3,3.4-3.9,16-17.4,27-29.3,0,.3-.1.6-.2.9-.2,1.1-.9,2.4-.5,3.3.4.9,1.8,1.4,2.7,2.1,1.2.9,2.3,2,3.4,3v1.5c-1.2,1.7-2.4,3.5-3.5,5.2Z"/>
      </g>
    </g>
  </g>
</svg>