<?xml version="1.0" encoding="UTF-8"?>
<svg xmlns="http://www.w3.org/2000/svg" xmlns:xlink="http://www.w3.org/1999/xlink" version="1.1" viewBox="0 0 202 124">
  <defs>
    <style>
      .cls-1 {
        fill: none;
      }

      .cls-2 {
        fill: #fff;
      }

      .cls-3 {
        fill: url(#Degradado_sin_nombre_4-2);
      }

      .cls-4 {
        fill: url(#Degradado_sin_nombre_4);
      }

      .cls-5 {
        fill: #00da00;
      }

      .cls-6 {
        clip-path: url(#clippath);
      }
    </style>
    <clipPath id="clippath">
      <rect class="cls-1" width="202" height="124"/>
    </clipPath>
    <linearGradient id="Degradado_sin_nombre_4" data-name="Degradado sin nombre 4" x1="44.5" y1="63.7" x2="44.5" y2="4.4" gradientUnits="userSpaceOnUse">
      <stop offset="0" stop-color="#fff"/>
      <stop offset="1" stop-color="#e8e8e8"/>
    </linearGradient>
    <linearGradient id="Degradado_sin_nombre_4-2" data-name="Degradado sin nombre 4" x1="114.2" y1="60.7" x2="114.2" y2="4.4" xlink:href="#Degradado_sin_nombre_4"/>
  </defs>
  <!-- Generator: Adobe Illustrator 28.6.0, SVG Export Plug-In . SVG Version: 1.2.0 Build 709)  -->
  <g>
    <g id="Capa_1">
      <g class="cls-6">
        <g>
          <path class="cls-2" d="M75.1,42.8c-2.7,4.2-6,7.9-9.9,11.1l5.2,10.1h-21.2l-1.8-3h-9.6c-4,0-7.7-.3-11.4-1-3.6-.6-6.8-1.8-9.5-3.3-2.7-1.6-4.9-3.7-6.5-6.4s-2.4-6.1-2.4-10.3,0-3.1.3-4.8c.6-3.8,1.9-7.6,3.9-11.3s4.6-6.9,7.6-9.8c3-2.8,6.4-5.1,10-6.8,3.6-1.7,7.3-2.6,11.1-2.6h14c3.8,0,7.3.4,10.5,1.3,3.1.9,5.8,2.1,8.1,3.8,2.2,1.7,4,3.8,5.2,6.4,1.2,2.5,1.9,5.5,1.9,8.8s0,1.7-.2,2.7c0,.9-.2,1.9-.4,2.9-.6,4-2.3,8.1-5,12.3h.1ZM55.4,34l2.1,4.1c0-.3.3-.6.5-.9.2-.3.3-.6.5-1,.6-1,1-1.8,1.2-2.3l.4-1.1c0-.7.2-1,.2-1v-2.4c0-1.3,0-2.5-.4-3.8-.3-1.2-.8-2.4-1.5-3.4s-1.7-1.9-3-2.5c-1.2-.6-2.8-1-4.7-1h-7.3c-1.1,0-2.4.3-3.7.9s-2.6,1.4-3.9,2.4c-1.3,1-2.5,2.1-3.6,3.3-1.1,1.2-2,2.5-2.6,3.7-.4.9-.7,1.6-1,2.4-.3.7-.5,1.4-.5,2,0,0-.1.3-.1.7v.6c0,1.3.3,2.6.7,4,.5,1.4,1.2,2.6,2,3.8.9,1.1,1.8,2.1,3,2.8,1.1.7,2.3,1.1,3.6,1.1h1.4l-5.7-12.6h22.3v.2s0,0,.1,0Z"/>
          <path class="cls-2" d="M94.9,4.7h47.4c2.5,0,4.6.5,6.2,1.6,1.6,1.1,2.7,2.4,3.6,4,.8,1.6,1.3,3.4,1.6,5.3.2,1.9.4,3.7.4,5.3,0,3.6-.9,6.6-2.7,8.9s-4,4.2-6.6,5.6c-2.7,1.4-5.6,2.4-8.8,3s-6.2,1-9.1,1.2l20.8,21.4h-22.7l-21.9-20.2-1.2.9-7,19.3h-20.4L94.9,4.7ZM133.3,20.9c0-.6-.1-1-.3-1.4s-.7-.6-1.6-.6h-21.3l-6.1,16.6,9.3-9.5h17c1.1,0,1.8-.5,2.3-1.4s.7-1.8.7-2.5v-1.2h0Z"/>
        </g>
      </g>
      <g>
        <path class="cls-4" d="M8.5,34.9v-.2h19.9c0,1.4.2,2.7.6,3.9H8.2c0-1.2.1-2.4.3-3.7ZM8.2,41h21.9c1,1.8,2.3,3.3,3.8,4.2H8.7c-.4-1.4-.5-2.8-.5-4.2ZM9.6,30.1c.2-.6.4-1.2.6-1.8h20.2c-.1.2-.3.5-.4.7-.6,1.2-1,2.2-1.2,2.9H9.1c.1-.6.3-1.2.5-1.8ZM67.3,51.9H11.9c-1-1.2-1.8-2.7-2.5-4.6h62.3c-1.3,1.7-2.8,3.2-4.4,4.6ZM12.4,23.7c.3-.5.6-1,1-1.6h22.7c-1.3,1-2.4,2.1-3.5,3.2H11.6c.3-.6.6-1.1.8-1.6ZM13.4,53.6h52l2.5,5H22.1c-3.5-1.1-6.4-2.7-8.7-5ZM17,17.1c.4-.5.8-.9,1.3-1.4h60.5c.2.5.4,1,.6,1.4.2.5.4.9.5,1.4H15.8c.4-.5.7-1,1.2-1.4ZM25.7,9.4h47.9c1.1.8,2,1.7,2.8,2.5H22.2l3.5-2.5ZM70.6,63.7h-21.2l-1.8-3h-9.6c-1.8,0-3.6,0-5.3-.2-1.7,0-3.4-.3-5-.6h41l1.9,3.7h0ZM78.3,36.7c-.3.6-.6,1.3-1,1.9h-41.8l-1.8-3.9h22.3l1.7,3.2c0-.3.3-.6.5-.8.2-.3.3-.6.5-1,0-.2.3-.4.4-.7,0-.2.2-.5.4-.7h19.6c-.2.7-.5,1.4-.7,2h-.1ZM41.2,4.4h14c3,0,5.8.3,8.5.8h-28.9c2.3-.6,4.4-.8,6.4-.8ZM73.3,45.2h-34.8l-1.9-4.2h39.6c-.8,1.3-1.7,2.8-2.9,4.2ZM80.8,23.4v1.8h-20.7c-.4-1.1-.9-2.2-1.6-3.2h22.2v1.4h0ZM80.1,31.1c0,.2,0,.5-.2.8h-19.5v-.2c.2,0,.2-.4.2-1.1v-2.3h19.9v1c0,.3,0,.6-.2,1,0,.4,0,.7-.2.9h0Z"/>
        <path class="cls-3" d="M74.7,60h20.4l-.2.7h-20.4l.2-.7ZM77.1,53.6h20.4l-1.8,5h-20.4l1.8-5ZM79.3,47.3h20.4l-1.6,4.6h-20.4l1.6-4.6ZM100.5,45.2h-20.4l1.5-4.2h20.8l-.5.4s-1.4,3.8-1.4,3.8ZM139.7,37.2c-2.1.6-4.2,1.1-6.4,1.4h-50.8l1.5-3.9h20.4l-.2.5.5-.5h41c-1.8,1.1-3.8,1.9-5.9,2.5h-.1ZM86.3,28.3h20.4l-1.4,3.6h-20.4l1.4-3.6ZM88.5,22.1h20.4l-1.2,3.2h-20.4l1.2-3.2ZM153.9,17.1v1.4h-64.1l1.1-2.9h62.8c0,.5.1,1,.2,1.4h0ZM152.3,10.7c.2.4.3.8.5,1.3h-60.5l1-2.5h58.5c.2.4.4.8.6,1.3h-.1ZM95,4.4h47.3c1.8,0,3.3.3,4.7.8h-52.3l.3-.8ZM103.5,41h24.8l4.1,4.2h-24.3l-4.7-4.2h0ZM150.9,30.2c-.5.6-1,1.1-1.5,1.7h-41.9l3.5-3.6h41.2c-.4.7-.8,1.3-1.2,1.9h-.1ZM110.4,47.3h24.2l4.5,4.6h-23.7s-5-4.6-5-4.6ZM117.2,53.6h23.5l4.9,5h-22.9l-5.4-5h0ZM147.7,60.7h-22.7l-.8-.7h22.8l.7.7ZM153.7,23.7c0,.5-.2,1-.3,1.5h-21.4c.5-.4.8-.8,1.1-1.4.2-.6.4-1.2.4-1.8h20.5c0,.6-.1,1.1-.2,1.6h-.1Z"/>
      </g>
      <path class="cls-5" d="M156.5,69.6c2.5-1.6,4.7-3.3,6.4-4.7.4-.3.9-.7,1.5-1.2.6-.5,1.3-1.1,2-1.6s1.4-.9,2-1.1c.6-.2,1.1-.2,1.4.2.5.5.4,1.1,0,1.9-.5.8-1.3,1.7-2.2,2.6-1,.9-2,1.8-3,2.6-1.1.8-1.9,1.5-2.5,1.9-.5.5-1.2,1.1-2.1,1.7-.9.6-1.9,1.3-2.9,2-1.1.7-2.1,1.4-3.1,2-1,.7-1.9,1.2-2.5,1.6-1.2.7-2.7,1.6-4.5,2.5s-3.6,1.6-5.2,1.9c-1.6.3-3.1.4-4.4.2-1.4-.2-2.5-.7-3.4-1.6s-1.3-2.1-1.4-3.6c0-1.5.4-3.4,1.4-5.7.3-.5.8-1.4,1.5-2.5s1.6-2.4,2.7-3.7c1.1-1.4,2.2-2.8,3.4-4.2,1.2-1.5,2.4-2.8,3.6-4.1,1.1-1.3,2.2-2.4,3.2-3.3,1-.9,1.7-1.5,2.3-1.8,1.3-.5,2.5-.4,3.4.3,1,.7,1.4,1.6,1.4,2.6-.1.7-.4,1.6-.9,2.5-.5,1-1.1,1.8-1.8,2.4-.7.7-1.4,1-2,1.1-.7,0-1.2-.4-1.6-1.4h0l-.4-.2h0c-1.4,1.3-2.9,2.7-4.6,4.5-1.7,1.7-3.1,3.5-4.4,5.3-1.3,1.8-2.2,3.4-2.7,5-.6,1.5-.4,2.7.4,3.6.8.5,2.2.5,4.4-.2,2.1-.7,4.4-1.7,7-3"/>
      <path class="cls-5" d="M60.4,68.5c.9.2,1.4.8,1.6,1.9.2,1.1-.3,2.3-1.5,3.7-2.3.8-4.7,2-7.2,3.5s-4.6,3.2-6.2,5c1.3.2,2.7.4,4.4.6s2.9.7,3.7,1.4c1.2-.7,2.6-1.6,4.3-2.5,1.6-1,3.4-1.9,5.3-2.8s3.8-1.7,5.8-2.5,3.8-1.4,5.5-1.9c.7,0,1.2.4,1.3.7.2.3.2.6,0,1,0,.3-.3.7-.5,1l-.6.6c-1.4.6-2.9,1.2-4.7,2-1.7.8-3.5,1.6-5.3,2.5s-3.5,1.8-5.1,2.6c-1.6.9-2.9,1.7-3.9,2.3,0,1.4,0,2.7-.6,4-.5,1.3-1.3,2.5-2.2,3.8-1.1,1.4-2.2,2.6-3.5,3.7s-2.5,2-3.8,2.9c-1.3.8-2.4,1.6-3.5,2.2s-1.9,1.1-2.6,1.4c-.5.2-1.1.4-1.6.6-.6.3-1.1.4-1.8.5h-1.9c-.7,0-1.3-.4-2-1-.4-.3-.5-.9-.4-1.6.2-.7.5-1.5.9-2.4s.9-1.7,1.4-2.4c.5-.8,1-1.3,1.3-1.6,1-1,2.1-2,3.4-3,1.3-1,2.5-1.9,3.8-2.9,1.3-.9,2.5-1.8,3.7-2.7,1.2-.8,2.3-1.6,3.3-2.3-.5-.2-1.2-.3-2-.3h-2.4c-.8,0-1.6,0-2.3-.2-.7,0-1.3-.2-1.7-.5-.7-.4-1.1-1.2-1.3-2.2-.2-1.1,0-2,.5-2.9.6-.9,1.4-1.8,2.4-2.7,1-.9,2.1-1.8,3.2-2.7,1.1-.9,2.3-1.7,3.4-2.4,1.1-.7,2.1-1.3,3.1-1.9,1.1-.4,2.1-.9,3.1-1.4s2-.8,2.9-.9h.3v-.2h0ZM38.3,102.7c.7,0,1.9-.5,3.4-1.6,1.6-1,3.1-2.3,4.7-3.7,1.6-1.4,3.1-2.8,4.4-4.3,1.3-1.4,2.1-2.6,2.4-3.5-1.1.8-2.4,1.7-4,2.8-1.5,1.1-3,2.3-4.5,3.4-1.5,1.2-2.8,2.4-4,3.6s-2,2.2-2.5,3.2h0Z"/>
      <path class="cls-5" d="M78.1,74.4c1.6-1.3,3.4-2.9,5.3-4.7,1.9-1.8,3.9-3.4,5.9-4.7,1.3-.8,2.6-1.4,3.9-1.8,1.3-.4,2.4,0,3.4.6.7.5,1.1,1.1,1.2,1.8.2.7.2,1.5,0,2.2,0,.7-.3,1.5-.6,2.3-.3.8-.6,1.5-.9,2.2-.7,1.3-1.6,2.7-2.6,4.3-1,1.5-2.1,3-3.2,4.5s-2.2,2.9-3.3,4.2c-1.1,1.3-2,2.4-2.8,3.4-.9.7-1.8,1.4-2.7,2.2s-1.7,1.5-2.7,2.2c-.9.7-1.9,1.3-3,1.8s-2.2.9-3.6,1c-.5-.4-1.1-.8-1.7-1s-1.1-.7-1.4-1.4c-1.2,2-2.4,4.1-3.6,6.4s-2.3,4.6-3.5,7c-1.1,2.4-2.2,4.8-3.2,7.1-1,2.4-1.9,4.6-2.7,6.7-.3.7-.5,1.4-.6,2s-.6.9-1.3,1.1c-.8.2-1.5,0-2-.2-.6-.3-1-.7-1.2-1.2s-.4-1.1-.4-1.8,0-1.3.4-1.9c.8-2.1,1.6-4.3,2.5-6.6.9-2.3,1.8-4.5,2.8-6.6s2.1-4.1,3.2-6.1c1.1-2,2.3-4,3.4-6.2.9-1.8,1.7-3.7,2.7-5.7.9-2,1.9-4.1,2.9-6.2s2-4.3,2.9-6.4c1-2.1,1.9-4.2,2.7-6.2.2-.6.5-1.2.8-1.8.3-.6.6-1,.8-1.2.3-.2.6-.3,1-.3s.8,0,1.2.3c.4.2.8.4,1.1.7s.6.6.7,1c.2.7.2,1.4,0,2s-.5,1.2-.8,1.7c-.3.6-.7,1.1-1,1.6s-.5,1-.5,1.5h0s.5.2.5.2ZM73.1,92.3c2.5-1.2,4.7-2.8,6.7-4.9,1.3-1.3,2.5-2.8,3.9-4.4,1.3-1.7,2.6-3.4,3.8-5.2,1.2-1.8,2.3-3.6,3.3-5.4s1.8-3.5,2.5-5.1c-1.9,1.3-4,2.9-6.4,4.8s-4.6,3.9-6.7,6.1-3.8,4.5-5.2,6.9c-1.4,2.4-2,4.8-1.8,7.1h-.1Z"/>
      <path class="cls-5" d="M122.1,58.1c.7-.6,1.3-.9,1.8-.9s.9.2,1.2.7c.3.5.4,1.1.4,1.9s-.2,1.8-.7,2.8c0,.2-.3.6-.5,1.2s-.5,1.2-.8,1.8-.6,1.3-.8,1.9c-.3.6-.5,1-.6,1.3-.7,1-1.2,2.1-1.7,3.2s-.7,2-.8,2.8c0,.8,0,1.4.4,1.9.3.5,1,.7,2,.5,1.8-.2,3.5-.9,5.2-1.9,1.7-1.1,3.2-2.2,4.7-3.5s2.8-2.5,3.9-3.7c1.1-1.2,2.1-2,2.9-2.5,1.3-.8,2.1-1.1,2.3-.7.2.3,0,.9-.4,1.7-.9,1.3-2.2,2.8-3.8,4.5s-3.4,3.4-5.4,5c-2,1.7-4,3.1-6.1,4.4s-4.1,2.2-5.9,2.6c-.8.2-1.6,0-2.3-.4-.7-.4-1.3-1.1-1.7-2-.4-.9-.6-2-.6-3.4s.4-2.8,1.1-4.3c-1.1,1.7-2.2,3.2-3.2,4.4-1,1.2-2,2.4-3,3.4l-3,3c-1,1-2,2-3.1,3-2,1.9-3.8,2.8-5.6,2.8s-2.9-1-3.5-3v-2.3c.2-.8.6-1.7,1-2.5.4-.9.9-1.7,1.4-2.6s1-1.7,1.4-2.6c1.9-2.8,3.7-5.3,5.5-7.5,1.7-2.2,3.8-4.2,6.1-6.1.7-.8,1.6-1.4,2.8-2,1.1-.6,2.2-.9,3.2-1.1,1-.2,1.8,0,2.3.4.6.4.7,1.3.4,2.6l3.6-4.8h-.2,0ZM100,83.3c.2.2.8,0,1.9-1,1.1-.9,2.4-2.1,3.9-3.5,1.5-1.5,3.1-3.2,4.7-5.1s3.1-3.9,4.4-5.8c.3-.5.8-1.2,1.4-2,.6-.9,1.3-1.8,2-2.7-.4-.3-1.1,0-2.2.7-1.1.7-2.3,1.7-3.7,3-1.4,1.3-2.8,2.7-4.3,4.2-1.5,1.6-2.8,3.2-4.1,4.7-1.2,1.6-2.2,3-3,4.4s-1.1,2.4-1.1,3.1h0Z"/>
      <path class="cls-5" d="M170.2,67.1c-.2.6-.4,1-.7,1.3s-.5.5-.6.6,0,.2,0,.3c.1,0,.5.2,1.1.3,1.1,0,2.3-.2,3.7-.7,1.3-.5,2.7-1.1,4.1-1.9,1.4-.8,2.8-1.6,4.2-2.5s2.7-1.7,4-2.3c3.3-2,6.1-3.8,8.3-5.4,2.2-1.6,4.4-3.3,6.5-5.1,1.1.5,1.5,1.2,1.1,2.1-.4.9-1.1,1.8-2.2,2.8-1.1,1-2.3,2-3.7,2.9-1.4,1-2.4,1.8-3.2,2.4-1.5,1.1-3.4,2.5-5.6,4.2-2.2,1.7-4.6,3.2-7,4.5-2.4,1.4-4.8,2.3-7.2,2.9-2.3.6-4.4.4-6.2-.7-1.6-1-2.6-2.3-2.8-3.9s0-3.3.9-5.2c.8-1.9,1.9-3.8,3.4-5.7s3.1-3.7,4.7-5.4c1.6-1.7,3.3-3.2,4.8-4.4,1.6-1.3,2.9-2.1,3.9-2.6s1.6-.5,2.5-.2,1.6.8,2.2,1.4c.6.7,1,1.5,1.2,2.4s.1,1.8-.2,2.7c-.5,1.1-1.3,2.4-2.4,3.6-1.1,1.3-2.3,2.5-3.7,3.7s-2.8,2.3-4.3,3.3-2.9,1.9-4.1,2.5c-.3.3-.6.5-.8.6s-.4.3-.5.4c-.1,0-.3.2-.5.4-.2,0-.5.3-.9.5h0s0,.2,0,.2ZM170.8,62.1c2-1.4,4.1-3.1,6.3-5.3s4-4.2,5.1-6.2c-1.1.5-2.1,1.2-3.2,2.1-1.1.9-2.1,1.8-3.2,2.9-1,1-2,2.1-2.9,3.3-.9,1.1-1.6,2.2-2.2,3.3h0Z"/>
      <path class="cls-5" d="M148.9,74.1c2.5-1.3,5.1-2.9,7.6-4.5"/>
    </g>
  </g>
</svg>