<svg width="202" height="124" viewBox="0 0 202 124" fill="none" xmlns="http://www.w3.org/2000/svg">
<g clip-path="url(#clip0_334_904)">
<path d="M75.0865 42.7911C72.4007 46.973 69.1035 50.6535 65.215 53.8426L70.4163 63.9313H49.1799L47.376 60.9528H37.8251C33.8565 60.9528 30.0782 60.6319 26.4703 60.0001C22.8625 59.3583 19.6955 58.2451 16.9696 56.6506C14.2436 55.056 12.0689 52.9199 10.4453 50.2222C8.81177 47.5346 8 44.0948 8 39.9129C8 38.4286 8.11024 36.8341 8.3207 35.1292C8.88193 31.3083 10.1948 27.5476 12.2493 23.8671C14.3038 20.1866 16.8493 16.9274 19.896 14.0893C22.9426 11.2612 26.2799 8.9747 29.9279 7.23975C33.5759 5.50481 37.2739 4.63232 41.0221 4.63232H55.0327C58.8511 4.63232 62.3387 5.05352 65.4856 5.90595C68.6324 6.75838 71.3283 8.03201 73.5532 9.72684C75.778 11.4217 77.5118 13.5477 78.7545 16.105C79.9973 18.6523 80.6086 21.5906 80.6086 24.9201C80.6086 25.7726 80.5585 26.6551 80.4482 27.5777C80.338 28.5003 80.2177 29.4531 80.0774 30.4459C79.436 34.4874 77.7724 38.5891 75.0865 42.771V42.7911ZM55.4436 33.9759L57.5683 38.1177C57.7086 37.8369 57.8689 37.5561 58.0493 37.2653C58.2297 36.9845 58.38 36.6636 58.5304 36.3126C59.1718 35.3198 59.5526 34.5476 59.7029 33.9759L60.1238 32.9129C60.2642 32.2009 60.3343 31.89 60.3343 31.9602C60.4045 31.8198 60.4445 31.4688 60.4445 30.8972V29.6235C60.4445 28.3499 60.3042 27.0963 60.0236 25.8528C59.743 24.6193 59.2219 23.476 58.4803 22.4531C57.7386 21.4302 56.7465 20.5978 55.5038 19.956C54.261 19.3142 52.6876 19.0033 50.7834 19.0033H43.4574C42.325 19.0033 41.1023 19.3041 39.7894 19.9058C38.4766 20.5076 37.1837 21.3098 35.911 22.2926C34.6382 23.2855 33.4556 24.3986 32.3532 25.6422C31.2508 26.8857 30.3889 28.0992 29.7475 29.3026C29.3967 30.1551 29.076 30.9473 28.7954 31.6894C28.5148 32.4315 28.3344 33.0934 28.2643 33.655C28.1941 33.7252 28.154 33.9759 28.154 34.3971V35.039C28.154 36.3126 28.4046 37.6464 28.8956 39.0203C29.3867 40.4043 30.0582 41.6578 30.91 42.7911C31.7619 43.9243 32.7541 44.8469 33.8865 45.5489C35.019 46.2609 36.2216 46.6119 37.4944 46.6119H38.8774L33.1449 33.9659H55.4436V33.9759Z" fill="white"/>
<path d="M94.8597 4.65234H142.213C144.759 4.65234 146.813 5.18386 148.367 6.24689C149.92 7.30992 151.113 8.65375 151.924 10.2884C152.736 11.9231 153.267 13.6881 153.518 15.6035C153.768 17.519 153.889 19.284 153.889 20.9187C153.889 24.529 153.007 27.5075 151.233 29.8441C149.459 32.1808 147.254 34.0361 144.598 35.42C141.943 36.804 139.006 37.7968 135.789 38.3985C132.572 39.0002 129.546 39.4114 126.709 39.622L147.515 60.9728H124.795L102.927 40.7853L101.755 41.6377L94.7495 60.9728H74.365L94.8597 4.65234ZM133.294 20.9087C133.294 20.3471 133.183 19.8657 132.973 19.4746C132.763 19.0835 132.231 18.8929 131.38 18.8929H110.043L103.99 35.4702L113.33 26.0132H130.317C131.38 26.0132 132.141 25.5318 132.602 24.5791C133.063 23.6264 133.294 22.794 133.294 22.082V20.9087Z" fill="white"/>
<path d="M60.368 68.457C61.2192 68.638 61.7724 69.2662 61.9959 70.3628C62.2299 71.4593 61.7193 72.6943 60.4638 74.0571C58.155 74.8662 55.7505 76.0267 53.2503 77.5385C50.75 79.0503 48.6647 80.7005 47.0262 82.4891C48.2817 82.6595 49.7393 82.8405 51.4203 83.064C53.1013 83.2876 54.3355 83.7667 55.1228 84.5013C56.3144 83.7774 57.7295 82.9363 59.3786 81.9781C61.0277 81.0199 62.7938 80.0937 64.6664 79.1994C66.5495 78.3051 68.4753 77.464 70.4542 76.6868C72.4331 75.9096 74.2738 75.2814 75.9867 74.7917C76.7102 74.9195 77.157 75.143 77.3166 75.4624C77.4762 75.7818 77.5188 76.1012 77.4124 76.4313C77.3166 76.7613 77.1358 77.0914 76.8698 77.4214C76.6038 77.7514 76.4123 77.9644 76.274 78.0602C74.8909 78.6138 73.3269 79.2739 71.582 80.0404C69.8371 80.807 68.071 81.6268 66.2942 82.5104C64.5174 83.3834 62.8151 84.2671 61.2086 85.1508C59.5914 86.0344 58.2934 86.8116 57.3039 87.493C57.4316 88.8558 57.2401 90.1759 56.7081 91.4642C56.1761 92.7524 55.4526 94.0087 54.5376 95.233C53.4843 96.6277 52.3246 97.8627 51.0798 98.9487C49.8244 100.035 48.5796 100.993 47.3241 101.834C46.0687 102.675 44.9196 103.399 43.8663 103.984C42.813 104.581 41.9512 105.049 41.2916 105.39C40.7596 105.571 40.217 105.784 39.6637 106.029C39.0998 106.284 38.5147 106.454 37.887 106.54C37.2592 106.635 36.6209 106.625 35.9612 106.508C35.3016 106.401 34.6419 106.061 33.9823 105.496C33.5886 105.156 33.4716 104.623 33.6312 103.899C33.8014 103.175 34.0887 102.387 34.5249 101.536C34.9505 100.684 35.4292 99.8749 35.9612 99.119C36.4932 98.3525 36.9188 97.8308 37.2486 97.5646C38.2381 96.5319 39.3552 95.5311 40.6106 94.5516C41.8661 93.5722 43.1109 92.614 44.3664 91.6664C45.6218 90.7189 46.856 89.8352 48.0689 88.9942C49.2924 88.1637 50.3883 87.3972 51.3777 86.7158C50.8458 86.5455 50.1861 86.4284 49.3988 86.3858C48.6115 86.3325 47.8135 86.2899 47.0262 86.2367C46.2389 86.1835 45.4729 86.1302 44.7494 86.0664C44.0259 86.0025 43.462 85.8428 43.0684 85.5766C42.4087 85.1508 41.9619 84.4055 41.7384 83.3515C41.5044 82.2869 41.6852 81.318 42.281 80.4344C42.8768 79.5507 43.6642 78.6457 44.6536 77.7195C45.6431 76.7933 46.707 75.8883 47.8667 74.994C49.0158 74.0997 50.1542 73.3012 51.282 72.5879C52.3991 71.8746 53.4205 71.2571 54.3461 70.7247C55.3994 70.3095 56.4315 69.8517 57.4635 69.3726C58.4849 68.8935 59.4531 68.5954 60.3787 68.4783L60.368 68.457ZM38.3232 102.664C39.0467 102.664 40.1851 102.132 41.7384 101.099C43.2918 100.056 44.8664 98.8422 46.4836 97.4368C48.1008 96.0422 49.569 94.6155 50.8777 93.1676C52.197 91.7197 52.9843 90.5592 53.2503 89.6755C52.1331 90.4527 50.8138 91.4003 49.2924 92.4969C47.771 93.6041 46.2815 94.7539 44.7919 95.9463C43.3131 97.1494 41.9725 98.3312 40.7915 99.5129C39.6105 100.684 38.7807 101.738 38.3232 102.664Z" fill="#00DA00"/>
<path d="M78.0614 74.3764C79.7105 73.0775 81.4873 71.5018 83.4024 69.6599C85.3175 67.8181 87.2858 66.2424 89.3392 64.9329C90.6585 64.1131 91.9459 63.5276 93.1907 63.1656C94.4461 62.8142 95.5633 63.0165 96.5527 63.7937C97.2124 64.2835 97.6273 64.901 97.7869 65.6249C97.9465 66.3595 97.989 67.0941 97.8827 67.8394C97.7869 68.5846 97.5848 69.3618 97.2869 70.1497C96.9889 70.9375 96.6804 71.6721 96.3506 72.3642C95.6271 73.695 94.7547 75.111 93.7333 76.6334C92.7119 78.1559 91.6373 79.6783 90.5202 81.1795C89.403 82.6913 88.3072 84.1073 87.2539 85.4274C86.2006 86.7476 85.2749 87.8761 84.4876 88.7917C83.562 89.4625 82.6789 90.1971 81.8171 90.9956C80.9553 91.7941 80.0723 92.5287 79.1466 93.1994C78.221 93.8701 77.2315 94.4663 76.1782 94.988C75.1249 95.5097 73.9333 95.8397 72.614 95.9675C72.0821 95.5203 71.5288 95.1797 70.933 94.9561C70.3372 94.7325 69.8797 94.2641 69.5499 93.572C68.3689 95.5416 67.1773 97.6709 65.9963 99.9599C64.8047 102.249 63.6556 104.581 62.5385 106.955C61.4214 109.329 60.3681 111.714 59.3786 114.099C58.3891 116.483 57.4954 118.73 56.7081 120.827C56.4421 121.572 56.2506 122.243 56.1123 122.818C55.9846 123.404 55.5484 123.766 54.8249 123.915C54.0376 124.074 53.3567 124.021 52.8034 123.744C52.2396 123.478 51.8459 123.084 51.6225 122.573C51.3884 122.062 51.2714 121.466 51.2714 120.774C51.2714 120.082 51.399 119.432 51.665 118.826C52.4523 116.728 53.2822 114.524 54.1334 112.235C54.9952 109.946 55.9101 107.732 56.8996 105.592C57.8891 103.516 58.9637 101.504 60.1127 99.5341C61.2618 97.5645 62.4002 95.4991 63.528 93.3272C64.3791 91.5598 65.2728 89.6648 66.1985 87.6419C67.1241 85.6191 68.071 83.5324 69.0605 81.3924C70.0499 79.2525 71.0181 77.1125 71.9757 74.9726C72.9332 72.8433 73.8376 70.7778 74.6994 68.8082C74.9015 68.212 75.1569 67.6052 75.4867 66.9877C75.8165 66.3702 76.0825 65.9656 76.274 65.7846C76.54 65.593 76.8804 65.5078 77.3167 65.5291C77.7422 65.5504 78.1572 65.6569 78.5508 65.8485C78.9445 66.0508 79.3062 66.285 79.6361 66.5618C79.9659 66.8493 80.1999 67.1793 80.3276 67.5732C80.5298 68.2972 80.5298 68.9573 80.3276 69.5535C80.1255 70.1497 79.8701 70.7246 79.5403 71.2782C79.2105 71.8318 78.8807 72.3642 78.5508 72.8858C78.221 73.4075 78.0614 73.9079 78.0614 74.387V74.3764ZM73.1247 92.337C75.625 91.1446 77.8699 89.5051 79.8488 87.4503C81.1043 86.162 82.381 84.6822 83.7003 83.032C85.0196 81.3818 86.275 79.657 87.456 77.8578C88.6476 76.0585 89.7329 74.2592 90.7223 72.4706C91.7118 70.6714 92.531 68.9786 93.1907 67.3922C91.3394 68.7337 89.2222 70.3413 86.8177 72.2151C84.4132 74.0889 82.1682 76.1117 80.0935 78.3049C78.0189 80.4981 76.2846 82.7978 74.9015 85.2252C73.5184 87.6526 72.9226 90.0267 73.1247 92.3477V92.337Z" fill="#00DA00"/>
<path d="M122.055 58.1406C122.715 57.5231 123.311 57.2144 123.832 57.2144C124.354 57.2144 124.768 57.4379 125.066 57.9064C125.364 58.3642 125.513 59.0136 125.513 59.844C125.513 60.6745 125.279 61.622 124.822 62.6867C124.694 62.9209 124.513 63.3255 124.279 63.8897C124.045 64.454 123.779 65.0608 123.492 65.7103C123.194 66.3597 122.917 66.9879 122.651 67.5947C122.385 68.2016 122.194 68.6274 122.055 68.8616C121.396 69.8944 120.832 70.9484 120.374 72.013C119.917 73.0777 119.63 74.0039 119.534 74.7811C119.438 75.5689 119.545 76.1971 119.885 76.6868C120.215 77.1766 120.874 77.3576 121.864 77.2298C123.641 77.0169 125.375 76.3674 127.056 75.3028C128.737 74.2381 130.301 73.0564 131.748 71.7575C133.195 70.4586 134.504 69.2236 135.653 68.0632C136.802 66.892 137.78 66.0616 138.568 65.5506C139.887 64.7308 140.664 64.4859 140.887 64.8266C141.111 65.1673 140.972 65.7316 140.44 66.5301C139.515 67.8289 138.249 69.3301 136.631 71.0442C135.014 72.7583 133.227 74.4404 131.248 76.08C129.269 77.7302 127.226 79.1994 125.12 80.4876C123.013 81.7759 121.034 82.6489 119.193 83.0854C118.406 83.2451 117.64 83.1067 116.917 82.6595C116.193 82.2124 115.619 81.531 115.182 80.6154C114.757 79.6998 114.555 78.5713 114.587 77.2511C114.618 75.9309 115.001 74.4937 115.725 72.9606C114.608 74.6427 113.533 76.1119 112.512 77.3576C111.49 78.6032 110.49 79.7424 109.501 80.7751C108.511 81.8078 107.522 82.8086 106.532 83.7668C105.543 84.7356 104.522 85.7364 103.468 86.7797C101.489 88.6322 99.6275 89.5798 97.8826 89.6224C96.1378 89.6649 94.9674 88.6642 94.3716 86.6307C94.244 85.96 94.2865 85.204 94.5206 84.363C94.7547 83.5219 95.0845 82.6702 95.5101 81.8185C95.9356 80.9667 96.4144 80.115 96.9464 79.242C97.4784 78.369 97.9358 77.5173 98.3295 76.6762C100.245 73.8655 102.075 71.3849 103.819 69.2236C105.564 67.073 107.586 65.0289 109.895 63.1125C110.618 62.346 111.544 61.6752 112.661 61.1003C113.778 60.5254 114.831 60.1634 115.821 59.9931C116.81 59.8334 117.587 59.9505 118.14 60.3551C118.704 60.7596 118.81 61.622 118.491 62.9422L122.045 58.1619L122.055 58.1406ZM100.011 83.2877C100.213 83.5219 100.851 83.2025 101.936 82.3295C103.021 81.4565 104.319 80.2747 105.841 78.7842C107.352 77.3043 108.937 75.5902 110.586 73.6632C112.235 71.7362 113.714 69.8092 115.033 67.8715C115.363 67.3924 115.821 66.7111 116.417 65.8274C117.012 64.9437 117.672 64.0494 118.395 63.1445C118.002 62.8783 117.257 63.1125 116.172 63.8578C115.087 64.5924 113.852 65.5932 112.469 66.8388C111.086 68.0951 109.65 69.5004 108.171 71.0868C106.692 72.6731 105.33 74.2381 104.117 75.8032C102.894 77.3682 101.894 78.8374 101.106 80.2108C100.319 81.5842 99.9573 82.617 100.021 83.2877H100.011Z" fill="#00DA00"/>
<path d="M148.835 58.8964C147.452 60.1527 145.92 61.6325 144.239 63.3573C142.558 65.082 141.089 66.8387 139.845 68.6166C138.589 70.3946 137.685 72.0555 137.121 73.5886C136.557 75.1217 136.706 76.3247 137.568 77.1977C138.355 77.7301 139.802 77.6662 141.919 76.9954C144.026 76.3247 146.345 75.3239 148.888 73.9825C151.42 72.641 153.963 71.1292 156.495 69.4364C159.027 67.7436 161.155 66.1786 162.868 64.72C163.262 64.4326 163.773 64.0173 164.4 63.4744C165.028 62.9314 165.688 62.3991 166.379 61.8774C167.071 61.3557 167.73 60.9831 168.358 60.7489C168.986 60.5146 169.465 60.5785 169.795 60.9299C170.252 61.3983 170.22 62.0371 169.699 62.8782C169.167 63.7086 168.433 64.5923 167.475 65.5079C166.518 66.4235 165.517 67.3071 164.464 68.1482C163.411 68.9786 162.592 69.6068 161.996 70.0007C161.464 70.5224 160.762 71.0973 159.868 71.7254C158.974 72.3536 158.006 73.0243 156.953 73.7163C155.899 74.419 154.857 75.0897 153.835 75.7498C152.814 76.4099 151.973 76.9422 151.314 77.3468C150.133 78.0707 148.611 78.9012 146.771 79.8274C144.93 80.7537 143.175 81.3818 141.536 81.7119C139.951 82.0313 138.472 82.0845 137.089 81.8822C135.706 81.6799 134.589 81.1369 133.727 80.2639C132.876 79.3909 132.408 78.2092 132.344 76.6867C132.28 75.1749 132.737 73.2798 133.727 70.9908C133.993 70.4585 134.482 69.6281 135.206 68.5102C135.929 67.3923 136.823 66.1573 137.876 64.7945C138.93 63.4424 140.068 62.0264 141.292 60.5679C142.515 59.1093 143.696 57.7465 144.845 56.469C145.994 55.202 147.047 54.0948 148.005 53.1792C148.963 52.2636 149.739 51.6674 150.324 51.4119C151.644 50.8689 152.782 50.9754 153.74 51.71C154.697 52.4552 155.176 53.3176 155.176 54.2864C155.048 55.0104 154.729 55.8515 154.24 56.8203C153.75 57.7891 153.154 58.5983 152.463 59.2583C151.771 59.9184 151.09 60.2804 150.441 60.3443C149.782 60.4082 149.25 59.9184 148.856 58.8964H148.835Z" fill="#00DA00"/>
<path d="M170.188 67.0943C169.986 67.6905 169.741 68.1376 169.443 68.4357C169.146 68.7445 168.954 68.9574 168.848 69.0745C168.741 69.1916 168.762 69.2981 168.901 69.3726C169.028 69.4472 169.39 69.5323 169.986 69.6282C171.103 69.6814 172.327 69.4578 173.646 68.9468C174.965 68.4357 176.316 67.8076 177.7 67.041C179.083 66.2745 180.487 65.4547 181.902 64.5817C183.317 63.7087 184.647 62.9315 185.903 62.2714C189.201 60.2912 191.967 58.5025 194.201 56.9056C196.436 55.3086 198.617 53.6051 200.723 51.7952C201.84 52.3382 202.223 53.0409 201.862 53.9139C201.5 54.7869 200.777 55.7132 199.691 56.6926C198.606 57.6721 197.383 58.6516 196.031 59.6098C194.68 60.5786 193.606 61.3771 192.818 62.0265C191.297 63.1657 189.424 64.5711 187.179 66.2319C184.934 67.8928 182.594 69.4046 180.157 70.7673C177.721 72.1301 175.327 73.0883 172.986 73.6632C170.646 74.2381 168.592 74.0145 166.805 72.9818C165.156 71.9917 164.23 70.7034 164.039 69.1171C163.836 67.5308 164.134 65.8061 164.932 63.9429C165.72 62.0798 166.858 60.1847 168.348 58.2577C169.826 56.3307 171.401 54.5207 173.04 52.8386C174.689 51.1564 176.306 49.6872 177.88 48.4309C179.455 47.1746 180.753 46.3123 181.732 45.8332C182.519 45.3967 183.349 45.3222 184.2 45.599C185.051 45.8758 185.786 46.3549 186.371 47.0362C186.967 47.7176 187.371 48.5161 187.605 49.4424C187.839 50.3686 187.754 51.2523 187.36 52.0933C186.828 53.2432 186.03 54.4462 184.934 55.7025C183.849 56.9588 182.615 58.1831 181.221 59.3649C179.838 60.5467 178.402 61.6433 176.923 62.676C175.444 63.698 174.072 64.5498 172.816 65.2205C172.486 65.4973 172.22 65.7102 172.029 65.8486C171.827 65.987 171.667 66.1148 171.539 66.2106C171.412 66.3064 171.241 66.4235 171.05 66.5726C170.848 66.7216 170.561 66.9026 170.156 67.1156L170.188 67.0943ZM170.784 62.0904C172.763 60.717 174.87 58.9603 177.114 56.8097C179.359 54.6591 181.072 52.5937 182.253 50.6241C181.2 51.1139 180.125 51.7952 179.04 52.6789C177.955 53.5626 176.902 54.5101 175.88 55.5535C174.859 56.5968 173.901 57.6828 173.008 58.8326C172.114 59.9824 171.38 61.0683 170.784 62.0904Z" fill="#00DA00"/>
</g>
<defs>
<clipPath id="clip0_334_904">
<rect width="202" height="124" fill="white"/>
</clipPath>
</defs>
</svg>
