<?xml version="1.0" encoding="UTF-8"?>
<svg xmlns="http://www.w3.org/2000/svg" version="1.1" viewBox="0 0 429 521">
  <defs>
    <style>
      .cls-1 {
        isolation: isolate;
      }

      .cls-2 {
        stroke-width: 2px;
      }

      .cls-2, .cls-3 {
        fill: none;
        stroke-miterlimit: 10;
      }

      .cls-2, .cls-3, .cls-4 {
        stroke: #810000;
      }

      .cls-5 {
        mix-blend-mode: color-dodge;
      }

      .cls-4 {
        fill: #810000;
      }
    </style>
  </defs>
  <!-- Generator: Adobe Illustrator 28.6.0, SVG Export Plug-In . SVG Version: 1.2.0 Build 709)  -->
  <g class="cls-1">
    <g id="Capa_1">
      <g class="cls-5">
        <path class="cls-2" d="M242.2,1v8.4l-39,39v169.4l37.4,37.4v54.9l-33.5,33.5v94.2l16.1,16.1v60.3"/>
        <path class="cls-2" d="M223.1,514.2c-1.6,0-2.9,1.3-2.9,2.9s1.3,2.9,2.9,2.9,2.9-1.3,2.9-2.9-1.3-2.9-2.9-2.9Z"/>
      </g>
      <g class="cls-5">
        <path class="cls-2" d="M338.3,1v39.4l-24.3,24.3v156.5l-43.8,43.8v92.7l-15.5,15.5v108.5"/>
        <path class="cls-2" d="M254.7,481.7c-1.6,0-2.9,1.3-2.9,2.9s1.3,2.9,2.9,2.9,2.9-1.3,2.9-2.9-1.3-2.9-2.9-2.9Z"/>
      </g>
      <g class="cls-5">
        <path class="cls-2" d="M216.3,1v110.8l33.6,33.7v160.8l60.8,60.8v74.8"/>
        <path class="cls-2" d="M310.7,441.7c-1.6,0-2.9,1.3-2.9,2.9s1.3,2.9,2.9,2.9,2.9-1.3,2.9-2.9-1.3-2.9-2.9-2.9Z"/>
      </g>
      <g class="cls-5">
        <path class="cls-2" d="M152.4,405.9v-20.7l40.3-40.3v-83.6l45.1-45.1v-98.1l-41.9-41.9V1"/>
        <path class="cls-2" d="M152.4,405.3c-1.6,0-2.9,1.3-2.9,2.9s1.3,2.9,2.9,2.9,2.9-1.3,2.9-2.9-1.3-2.9-2.9-2.9Z"/>
      </g>
      <g class="cls-5">
        <path class="cls-3" d="M163.1,1l23.8,23.8v70.4l-16.6,16.6v96l39.9,39.9v24.2"/>
        <path class="cls-3" d="M210.2,272c-1.6,0-2.9,1.3-2.9,2.9s1.3,2.9,2.9,2.9,2.9-1.3,2.9-2.9-1.3-2.9-2.9-2.9Z"/>
      </g>
      <g class="cls-5">
        <path class="cls-2" d="M69.6,1v93.7l24.1,24.1v53.4l-30.3,30.3v69.3"/>
        <path class="cls-2" d="M63.5,272c-1.6,0-2.9,1.3-2.9,2.9s1.3,2.9,2.9,2.9,2.9-1.3,2.9-2.9-1.3-2.9-2.9-2.9Z"/>
      </g>
      <g class="cls-5">
        <path class="cls-2" d="M143.8,1v78.8l16.5,16.5v147.1l-49.4,49.4v76.1"/>
        <path class="cls-2" d="M110.9,368.9c-1.6,0-2.9,1.3-2.9,2.9s1.3,2.9,2.9,2.9,2.9-1.3,2.9-2.9-1.3-2.9-2.9-2.9Z"/>
      </g>
      <g class="cls-5">
        <path class="cls-2" d="M37.2,1v70.8l15.7,15.7v34.6l-34.6,34.6v53"/>
        <path class="cls-2" d="M18.3,209.7c-1.6,0-2.9,1.3-2.9,2.9s1.3,2.9,2.9,2.9,2.9-1.3,2.9-2.9-1.3-2.9-2.9-2.9Z"/>
      </g>
      <g class="cls-5">
        <path class="cls-3" d="M285.1,1v15.9l-16.5,16.5v210l49.4,49.4v76.1"/>
        <path class="cls-3" d="M317.9,368.9c-1.6,0-2.9,1.3-2.9,2.9s1.3,2.9,2.9,2.9,2.9-1.3,2.9-2.9-1.3-2.9-2.9-2.9Z"/>
      </g>
      <g class="cls-5">
        <path class="cls-2" d="M306.1,1v77.5l-25.4,25.4v76.4l39,39v43.9"/>
        <path class="cls-2" d="M319.7,263.3c-1.6,0-2.9,1.3-2.9,2.9s1.3,2.9,2.9,2.9,2.9-1.3,2.9-2.9-1.3-2.9-2.9-2.9Z"/>
      </g>
      <g class="cls-5">
        <path class="cls-3" d="M359.2,1v80.3l-24.1,24.1v66.9l30.3,30.3v69.3"/>
        <path class="cls-3" d="M365.4,271.9c-1.6,0-2.9,1.3-2.9,2.9s1.3,2.9,2.9,2.9,2.9-1.3,2.9-2.9-1.3-2.9-2.9-2.9Z"/>
      </g>
      <g class="cls-5">
        <path class="cls-3" d="M228.4,1v183.9l34.1,34.1v24.1l-35.6,35.6v115.4l13.7,13.7v55.8"/>
        <path class="cls-4" d="M238.9,465.3c0-1,.8-1.8,1.8-1.8s1.8.8,1.8,1.8-.8,1.8-1.8,1.8-1.8-.8-1.8-1.8Z"/>
      </g>
      <g class="cls-5">
        <path class="cls-3" d="M256.8,1v33.3l40.3,40.3v83.6l45.1,45.1v98.1l-41.9,41.9v75.1"/>
        <path class="cls-4" d="M298.6,420.7c0-1,.8-1.8,1.8-1.8s1.8.8,1.8,1.8-.8,1.8-1.8,1.8-1.8-.8-1.8-1.8Z"/>
      </g>
      <g class="cls-5">
        <path class="cls-2" d="M346,1v10l20.9,20.9v105.9l20.7,20.7v70.8l-30.1,30.1v61"/>
        <path class="cls-4" d="M355.7,320.3c0-1,.8-1.8,1.8-1.8s1.8.8,1.8,1.8-.8,1.8-1.8,1.8-1.8-.8-1.8-1.8Z"/>
      </g>
      <g class="cls-5">
        <path class="cls-2" d="M380.5,1v17.9l22.4,22.4v51.5l25,25v56.9l-25.3,25.3v43.1"/>
        <path class="cls-4" d="M400.7,243.6c0-1,.8-1.8,1.8-1.8s1.8.8,1.8,1.8-.8,1.8-1.8,1.8-1.8-.8-1.8-1.8Z"/>
      </g>
      <g class="cls-5">
        <path class="cls-3" d="M391.6,1v70.8l-15.7,15.7v34.6l34.6,34.6v53"/>
        <path class="cls-4" d="M408.8,209.4c0-1,.8-1.8,1.8-1.8s1.8.8,1.8,1.8-.8,1.8-1.8,1.8-1.8-.8-1.8-1.8Z"/>
      </g>
      <g class="cls-5">
        <path class="cls-3" d="M245.9,1v112.6l29,29v83.6"/>
        <path class="cls-4" d="M273.1,226.2c0-1,.8-1.8,1.8-1.8s1.8.8,1.8,1.8-.8,1.8-1.8,1.8-1.8-.8-1.8-1.8Z"/>
      </g>
      <g class="cls-5">
        <path class="cls-3" d="M129.3,1v45.9l-19.3,19.3v160.1l-13.9,13.9v35.4"/>
        <path class="cls-4" d="M94.3,275.5c0-1,.8-1.8,1.8-1.8s1.8.8,1.8,1.8-.8,1.8-1.8,1.8-1.8-.8-1.8-1.8Z"/>
      </g>
      <g class="cls-5">
        <path class="cls-3" d="M172,1v20.4l-40.3,40.3v96.5l-45.1,45.1v98.1s41.9,41.9,41.9,41.9v96.4"/>
        <path class="cls-4" d="M126.7,439.7c0-1,.8-1.8,1.8-1.8s1.8.8,1.8,1.8-.8,1.8-1.8,1.8-1.8-.8-1.8-1.8Z"/>
      </g>
      <g class="cls-5">
        <path class="cls-3" d="M82.9,1v32.1l-20.9,20.9v83.7l-20.7,20.7v70.8l30.1,30.1v61"/>
        <path class="cls-4" d="M69.5,320.3c0-1,.8-1.8,1.8-1.8s1.8.8,1.8,1.8-.8,1.8-1.8,1.8-1.8-.8-1.8-1.8Z"/>
      </g>
      <g class="cls-5">
        <path class="cls-3" d="M48.4,1v17.9l-22.4,22.4v51.5L1,117.8v56.9s25.3,25.3,25.3,25.3v43.1"/>
        <path class="cls-4" d="M24.4,243.1c0-1,.8-1.8,1.8-1.8s1.8.8,1.8,1.8-.8,1.8-1.8,1.8-1.8-.8-1.8-1.8Z"/>
      </g>
      <g class="cls-5">
        <path class="cls-3" d="M98.6,1v15.8l24.3,24.3v180.1l43.8,43.8v53.9l13.8,13.8v117.3"/>
        <path class="cls-3" d="M180.5,450.1c-1.6,0-2.9,1.3-2.9,2.9s1.3,2.9,2.9,2.9,2.9-1.3,2.9-2.9-1.3-2.9-2.9-2.9Z"/>
      </g>
    </g>
  </g>
</svg>