<?xml version="1.0" encoding="UTF-8"?>
<svg xmlns="http://www.w3.org/2000/svg" version="1.1" viewBox="0 0 429 521">
  <defs>
    <style>
      .cls-1 {
        isolation: isolate;
      }

      .cls-2 {
        stroke-width: 2px;
      }

      .cls-2, .cls-3 {
        fill: none;
        stroke-miterlimit: 10;
      }

      .cls-2, .cls-3, .cls-4 {
        stroke: #810000;
      }

      .cls-5 {
        mix-blend-mode: color-dodge;
      }

      .cls-4 {
        fill: #810000;
      }
    </style>
  </defs>
  <!-- Generator: Adobe Illustrator 28.6.0, SVG Export Plug-In . SVG Version: 1.2.0 Build 709)  -->
  <g>
    <g id="Capa_1">
      <g class="cls-1">
        <g id="Capa_1-2" data-name="Capa_1">
          <g class="cls-5">
            <path class="cls-2" d="M186.9,520v-8.4l38.8-38.8v-168.5l-37.2-37.2v-54.6l33.3-33.3v-93.7l-16-16V9.7"/>
            <path class="cls-2" d="M205.8,9.7c1.6,0,2.9-1.3,2.9-2.9s-1.3-2.9-2.9-2.9-2.9,1.3-2.9,2.9,1.3,2.9,2.9,2.9Z"/>
          </g>
          <g class="cls-5">
            <path class="cls-2" d="M91.3,520v-39.2l24.2-24.2v-155.6l43.6-43.6v-92.2l15.4-15.4V42"/>
            <path class="cls-2" d="M174.4,42c1.6,0,2.9-1.3,2.9-2.9s-1.3-2.9-2.9-2.9-2.9,1.3-2.9,2.9,1.3,2.9,2.9,2.9h0Z"/>
          </g>
          <g class="cls-5">
            <path class="cls-2" d="M212.6,520v-110.2l-33.4-33.5v-159.9l-60.5-60.5v-74.4"/>
            <path class="cls-2" d="M118.7,81.8c1.6,0,2.9-1.3,2.9-2.9s-1.3-2.9-2.9-2.9-2.9,1.3-2.9,2.9,1.3,2.9,2.9,2.9Z"/>
          </g>
          <g class="cls-5">
            <path class="cls-2" d="M276.2,117.4v20.6l-40.1,40.1v83.1l-44.8,44.8v97.6l41.7,41.7v74.8"/>
            <path class="cls-2" d="M276.2,118c1.6,0,2.9-1.3,2.9-2.9s-1.3-2.9-2.9-2.9-2.9,1.3-2.9,2.9,1.3,2.9,2.9,2.9Z"/>
          </g>
          <g class="cls-5">
            <path class="cls-3" d="M265.5,520l-23.7-23.7v-70l16.5-16.5v-95.5l-39.7-39.7v-24.1"/>
            <path class="cls-3" d="M218.7,250.5c1.6,0,2.9-1.3,2.9-2.9s-1.3-2.9-2.9-2.9-2.9,1.3-2.9,2.9,1.3,2.9,2.9,2.9Z"/>
          </g>
          <g class="cls-5">
            <path class="cls-2" d="M358.5,520v-93.2l-24-24v-53.1l30.1-30.1v-68.9"/>
            <path class="cls-2" d="M364.6,250.5c1.6,0,2.9-1.3,2.9-2.9s-1.3-2.9-2.9-2.9-2.9,1.3-2.9,2.9,1.3,2.9,2.9,2.9Z"/>
          </g>
          <g class="cls-5">
            <path class="cls-2" d="M284.7,520v-78.4l-16.4-16.4v-146.3l49.1-49.1v-75.7"/>
            <path class="cls-2" d="M317.4,154.2c1.6,0,2.9-1.3,2.9-2.9s-1.3-2.9-2.9-2.9-2.9,1.3-2.9,2.9,1.3,2.9,2.9,2.9Z"/>
          </g>
          <g class="cls-5">
            <path class="cls-2" d="M390.7,520v-70.4l-15.6-15.6v-34.4l34.4-34.4v-52.7"/>
            <path class="cls-2" d="M409.5,312.5c1.6,0,2.9-1.3,2.9-2.9s-1.3-2.9-2.9-2.9-2.9,1.3-2.9,2.9,1.3,2.9,2.9,2.9Z"/>
          </g>
          <g class="cls-5">
            <path class="cls-3" d="M144.2,520v-15.8l16.4-16.4v-208.8l-49.1-49.1v-75.7"/>
            <path class="cls-3" d="M111.6,154.2c1.6,0,2.9-1.3,2.9-2.9s-1.3-2.9-2.9-2.9-2.9,1.3-2.9,2.9,1.3,2.9,2.9,2.9Z"/>
          </g>
          <g class="cls-5">
            <path class="cls-2" d="M123.3,520v-77.1l25.3-25.3v-76l-38.8-38.8v-43.7"/>
            <path class="cls-2" d="M109.8,259.2c1.6,0,2.9-1.3,2.9-2.9s-1.3-2.9-2.9-2.9-2.9,1.3-2.9,2.9,1.3,2.9,2.9,2.9Z"/>
          </g>
          <g class="cls-5">
            <path class="cls-3" d="M70.5,520v-79.9l24-24v-66.5l-30.1-30.1v-68.9"/>
            <path class="cls-3" d="M64.3,250.6c1.6,0,2.9-1.3,2.9-2.9s-1.3-2.9-2.9-2.9-2.9,1.3-2.9,2.9,1.3,2.9,2.9,2.9Z"/>
          </g>
          <g class="cls-5">
            <path class="cls-3" d="M200.6,520v-182.9l-33.9-33.9v-24l35.4-35.4v-114.8l-13.6-13.6v-55.5"/>
            <path class="cls-4" d="M190.1,58.3c0,1-.8,1.8-1.8,1.8s-1.8-.8-1.8-1.8.8-1.8,1.8-1.8,1.8.8,1.8,1.8Z"/>
          </g>
          <g class="cls-5">
            <path class="cls-3" d="M172.3,520v-33.1l-40.1-40.1v-83.1l-44.8-44.8v-97.6l41.7-41.7v-74.7"/>
            <path class="cls-4" d="M130.8,102.6c0,1-.8,1.8-1.8,1.8s-1.8-.8-1.8-1.8.8-1.8,1.8-1.8,1.8.8,1.8,1.8Z"/>
          </g>
          <g class="cls-5">
            <path class="cls-2" d="M83.6,520v-9.9l-20.8-20.8v-105.3l-20.6-20.6v-70.4l29.9-29.9v-60.7"/>
            <path class="cls-4" d="M74,202.5c0,1-.8,1.8-1.8,1.8s-1.8-.8-1.8-1.8.8-1.8,1.8-1.8,1.8.8,1.8,1.8Z"/>
          </g>
          <g class="cls-5">
            <path class="cls-2" d="M49.3,520v-17.8l-22.3-22.3v-51.2l-24.9-24.9v-56.6l25.2-25.2v-42.9"/>
            <path class="cls-4" d="M29.2,278.8c0,1-.8,1.8-1.8,1.8s-1.8-.8-1.8-1.8.8-1.8,1.8-1.8,1.8.8,1.8,1.8Z"/>
          </g>
          <g class="cls-5">
            <path class="cls-3" d="M38.3,520v-70.4l15.6-15.6v-34.4l-34.4-34.4v-52.7"/>
            <path class="cls-4" d="M21.2,312.8c0,1-.8,1.8-1.8,1.8s-1.8-.8-1.8-1.8.8-1.8,1.8-1.8,1.8.8,1.8,1.8Z"/>
          </g>
          <g class="cls-5">
            <path class="cls-3" d="M183.2,520v-112l-28.8-28.8v-83.1"/>
            <path class="cls-4" d="M156.1,296.1c0,1-.8,1.8-1.8,1.8s-1.8-.8-1.8-1.8.8-1.8,1.8-1.8,1.8.8,1.8,1.8Z"/>
          </g>
          <g class="cls-5">
            <path class="cls-3" d="M299.1,520v-45.6l19.2-19.2v-159.2l13.8-13.8v-35.2"/>
            <path class="cls-4" d="M333.9,247c0,1-.8,1.8-1.8,1.8s-1.8-.8-1.8-1.8.8-1.8,1.8-1.8,1.8.8,1.8,1.8Z"/>
          </g>
          <g class="cls-5">
            <path class="cls-3" d="M256.7,520v-20.3l40.1-40.1v-96l44.8-44.8v-97.6l-41.7-41.7v-95.9"/>
            <path class="cls-4" d="M301.7,83.8c0,1-.8,1.8-1.8,1.8s-1.8-.8-1.8-1.8.8-1.8,1.8-1.8,1.8.8,1.8,1.8Z"/>
          </g>
          <g class="cls-5">
            <path class="cls-3" d="M345.3,520v-31.9l20.8-20.8v-83.2l20.6-20.6v-70.4l-29.9-29.9v-60.7"/>
            <path class="cls-4" d="M358.6,202.5c0,1-.8,1.8-1.8,1.8s-1.8-.8-1.8-1.8.8-1.8,1.8-1.8,1.8.8,1.8,1.8Z"/>
          </g>
          <g class="cls-5">
            <path class="cls-3" d="M379.6,520v-17.8l22.3-22.3v-51.2l24.9-24.9v-56.6l-25.2-25.2v-42.9"/>
            <path class="cls-4" d="M403.4,279.3c0,1-.8,1.8-1.8,1.8s-1.8-.8-1.8-1.8.8-1.8,1.8-1.8,1.8.8,1.8,1.8Z"/>
          </g>
          <g class="cls-5">
            <path class="cls-3" d="M329.7,520v-15.7l-24.2-24.2v-179.1l-43.6-43.6v-53.6l-13.7-13.7v-116.6"/>
            <path class="cls-3" d="M248.2,73.4c1.6,0,2.9-1.3,2.9-2.9s-1.3-2.9-2.9-2.9-2.9,1.3-2.9,2.9,1.3,2.9,2.9,2.9Z"/>
          </g>
        </g>
      </g>
    </g>
  </g>
</svg>